<?xml version="1.0" encoding="UTF-8" standalone="no"?>
<svg width="296.926mm" height="209.973mm"
 viewBox="0 0 3507 2480"
 xmlns="http://www.w3.org/2000/svg" xmlns:xlink="http://www.w3.org/1999/xlink"  version="1.2" baseProfile="tiny">
<desc>Generated with Qt</desc>
<defs>
</defs>
<g fill="none" stroke="black" stroke-width="1" fill-rule="evenodd" stroke-linecap="square" stroke-linejoin="bevel" >

<g fill="none" stroke="#000000" stroke-opacity="1" stroke-width="1" stroke-linecap="square" stroke-linejoin="bevel" transform="matrix(1,0,0,1,0,0)"
font-family="MS Shell Dlg 2" font-size="34.375" font-weight="400" font-style="normal" 
>
</g>

<g fill="none" stroke="#000000" stroke-opacity="1" stroke-width="1" stroke-linecap="square" stroke-linejoin="bevel" transform="matrix(11.8081,0,0,11.8081,0,0)"
font-family="MS Shell Dlg 2" font-size="34.375" font-weight="400" font-style="normal" 
>
</g>

<g fill="#ffffff" fill-opacity="1" stroke="none" transform="matrix(0.999751,0,0,0.999751,0,0)"
font-family="MS Shell Dlg 2" font-size="34.375" font-weight="400" font-style="normal" 
>
<path vector-effect="none" fill-rule="evenodd" d="M-1,-1 L3508.87,-1 L3508.87,2481.31 L-1,2481.31 L-1,-1"/>
</g>

<g fill="none" stroke="#000000" stroke-opacity="1" stroke-width="1" stroke-linecap="square" stroke-linejoin="bevel" transform="matrix(11.8081,0,0,11.8081,0,0)"
font-family="MS Shell Dlg 2" font-size="34.375" font-weight="400" font-style="normal" 
>
</g>

<g fill="none" stroke="#000000" stroke-opacity="1" stroke-width="1" stroke-linecap="square" stroke-linejoin="bevel" transform="matrix(11.8081,0,0,11.8081,0,0)"
font-family="MS Shell Dlg 2" font-size="34.375" font-weight="400" font-style="normal" 
>
</g>

<g fill="none" stroke="#000000" stroke-opacity="1" stroke-width="1" stroke-linecap="square" stroke-linejoin="bevel" transform="matrix(11.8081,0,0,11.8081,47.2323,35.4242)"
font-family="MS Shell Dlg 2" font-size="34.375" font-weight="400" font-style="normal" 
>
</g>

<g fill="none" stroke="#000000" stroke-opacity="1" stroke-width="1" stroke-linecap="square" stroke-linejoin="bevel" transform="matrix(11.8081,0,0,11.8081,47.2323,35.4242)"
font-family="MS Shell Dlg 2" font-size="34.375" font-weight="400" font-style="normal" 
>
</g>

<g fill="#ffffff" fill-opacity="1" stroke="none" transform="matrix(11.8081,0,0,11.8081,47.2323,35.4242)"
font-family="MS Shell Dlg 2" font-size="34.375" font-weight="400" font-style="normal" 
>
<rect x="0" y="0" width="289" height="204"/>
</g>

<g fill="none" stroke="#000000" stroke-opacity="1" stroke-width="1" stroke-linecap="square" stroke-linejoin="bevel" transform="matrix(11.8081,0,0,11.8081,47.2323,35.4242)"
font-family="MS Shell Dlg 2" font-size="34.375" font-weight="400" font-style="normal" 
>
</g>

<g fill="#000000" fill-opacity="0" stroke="none" transform="matrix(0.999751,0,0,0.999751,47.2323,35.4242)"
font-family="MS Shell Dlg 2" font-size="34.375" font-weight="400" font-style="normal" 
>
<rect x="0" y="0" width="3413" height="2409"/>
</g>

<g fill="none" stroke="#9b5ba5" stroke-opacity="1" stroke-width="11.811" stroke-linecap="square" stroke-linejoin="bevel" transform="matrix(0.999751,0,0,0.999751,47.2323,35.4242)"
font-family="MS Shell Dlg 2" font-size="34.375" font-weight="400" font-style="normal" 
>
<path vector-effect="none" fill-rule="evenodd" d="M986.587,1668.62 L956.627,1651.56 L928.452,1675.35 L896.14,1674.64 L868.046,1631.93 L857.313,1526.68 L867.666,1498.6 L1003.42,1498.46 L1007.19,1215.49 L987.879,1207 L1003.15,1202.29 L998.719,331.998 L996.904,295.214 L995.811,257.626 L1054.26,256.533 L1054.39,268.424"/>
</g>

<g fill="none" stroke="#44aa42" stroke-opacity="1" stroke-width="11.811" stroke-linecap="square" stroke-linejoin="bevel" transform="matrix(0.999751,0,0,0.999751,47.2323,35.4242)"
font-family="MS Shell Dlg 2" font-size="34.375" font-weight="400" font-style="normal" 
>
<path vector-effect="none" fill-rule="evenodd" d="M2230.74,1557.71 L2241.46,1546.8 L2256.85,1603.7 L2319.02,1569.51 L2307.96,1546.56 L2474.18,1453.87 L2572.38,1398.8 L2595.49,1385.89 L2654.45,1357.89 L2464.67,986.9 L2461.7,759.414 L2461.23,682.844 L2460.45,596.21 L2459.47,490.639 L2458.64,416.781 L2458.59,393.814 L2482.72,393.796"/>
</g>

<g fill="none" stroke="#9b5ba5" stroke-opacity="1" stroke-width="11.811" stroke-linecap="square" stroke-linejoin="bevel" transform="matrix(0.999751,0,0,0.999751,47.2323,35.4242)"
font-family="MS Shell Dlg 2" font-size="34.375" font-weight="400" font-style="normal" 
>
<path vector-effect="none" fill-rule="evenodd" d="M2482.76,393.797 L2623.43,389.439 L2605.26,422.578 L2606,514.902 L2606.31,537.561 L2606.84,564.752 L2608.32,670.827 L2608.64,672.238 L2610.44,675.274 L2612.47,677.263 L2614.07,678.273 L2668.05,796.629 L2673.3,799.112 L2662.17,820.527 L2657.52,818.257 L2643.93,824.27 L2673.42,856.692 L2707.77,906.659 L2714.3,915.049 L2717.97,917.512 L2727.16,921.231 L2739.63,937.686 L2742.58,940.945 L2745.1,944.651 L2746.7,946.388 L2752.09,952.695 L2754.98,955.7 L2756.68,957.035 L2759.21,958.79 L2763.31,961.514 L2764.28,962.189 L2765.33,963.118 L2777.16,973.87 L2790.51,986.074 L2793.77,987.984 L2808.32,994.832 L2820.64,1000.88 L2846.52,1014.34 L2847.89,1015.16 L2851.41,1019.81 L2863.54,1036.5 L2874.6,1058.41 L2888.52,1088.74 L2910.99,1137.22 L2937.84,1194.93 L2976.42,1189.74 L2979.15,1196.64 L2993.27,1209.25 L3001.27,1225.42 L2980.27,1234.88 L2993.6,1263.6 L3021.03,1251.05 L3031.99,1273.3 L3050.19,1265.02 L3074.28,1253.73 L3063.65,1231.3 L3098.9,1214.86 L3117.65,1254.92 L3040.04,1290.9 L3032.03,1273.34 L3021.02,1251.04 L2972.73,1273.31 L2938.56,1204.98"/>
</g>

<g fill="none" stroke="#44aa42" stroke-opacity="1" stroke-width="11.811" stroke-linecap="square" stroke-linejoin="bevel" transform="matrix(0.999751,0,0,0.999751,47.2323,35.4242)"
font-family="MS Shell Dlg 2" font-size="34.375" font-weight="400" font-style="normal" 
>
<path vector-effect="none" fill-rule="evenodd" d="M2321.8,1576.69 L2319.39,1571.12 L2284.41,1591.27 L2256.66,1606.16 L2238.6,1571.94 L2238.66,1568.51 L2238.63,1563.54 L2238.66,1559.82 L2238.6,1553.62 L2238.59,1550.82 L2238.6,1548.17 L2231.52,1548.1 L2230.44,1547.79 L2222.85,1543.53 L2234.18,1524.74 L2231.93,1522.92 L2230.3,1520.81 L2241.75,1514.64 L2217.28,1464.15 L2205.45,1438.96 L2185.88,1397.56 L2175.5,1375.68 L2170.37,1364.74 L2165.56,1354.18 L2158.75,1342.77 L2154.14,1333.47 L2149.07,1322.47 L2144.76,1311.65 L2140.52,1301.86 L2137.57,1296.95 L2129.46,1279.89 L2120.61,1260.34 L2119.83,1258.02 L2111.33,1240.84 L2102.7,1224.81 L2099.29,1217.45 L2089.11,1194.01 L2085.23,1186.36 L2080.06,1174.8 L2064.18,1141.82 L2042.26,1095.28 L1987.98,981.005 L1948.55,897.65 L1919.76,837.571 L1884.56,763.737 L1867.73,727.487 L1850.03,690.47 L1843.91,677.632 L1841.05,673.44 L1838.17,668.308 L1833.16,657.908 L1822.6,636.175 L1812.79,615.348 L1778.57,543.882 L1775.22,537.062 L1755.84,496.653 L1742.79,469.371 L1733.78,449.912 L1735.68,449.728 L1742.28,449.517"/>
</g>

<g fill="none" stroke="#0079c2" stroke-opacity="1" stroke-width="11.811" stroke-linecap="square" stroke-linejoin="bevel" transform="matrix(0.999751,0,0,0.999751,47.2323,35.4242)"
font-family="MS Shell Dlg 2" font-size="34.375" font-weight="400" font-style="normal" 
>
<path vector-effect="none" fill-rule="evenodd" d="M784.64,1132.61 L784.746,1156.17 L785.084,1206.09 L932.083,1205.92 L1077.47,1205.65 L1481.32,1203.07 L1486.81,1197.9 L1493.42,1190.62 L1493.54,1187.23 L1493.54,1152.59 L1498.92,1136.2 L1499.5,1129.76 L1510.16,1100.53 L1511.72,1098.64 L1514.09,1097.39 L1531.55,1096.44 L1536.01,1092.84 L1539.46,1089.47 L1544.35,1084.93 L1543.47,1001.98 L1553,1001.79 L1566.87,1000.95 L1578.91,1000.4 L1584.86,1000.08 L1589.06,999.859 L1592.1,999.143 L1741.31,927.495 L1786.36,906.514 L1801.63,893.729 L1817.32,926.905 L1835.63,918.992 L1870.77,907.531 L1835.35,834.943 L1858.23,823.936 L1877.35,816.229 L1901.72,800.56 L1969.25,768.224 L1989.2,810.336 L2002.41,805.774 L2006.94,801.658 L2010.22,798.023 L2012.68,796.677 L2015.17,795.694 L2044.24,785.884 L2059.52,785.951 L2076.84,778.456 L2084.1,774.403 L2092.76,768.618 L2111.95,752.536 L2117.62,748.33 L2124.02,744.745 L2102.51,699.727 L2097.89,690.499 L2096.13,686.694"/>
</g>

<g fill="none" stroke="#44aa42" stroke-opacity="1" stroke-width="11.811" stroke-linecap="square" stroke-linejoin="bevel" transform="matrix(0.999751,0,0,0.999751,47.2323,35.4242)"
font-family="MS Shell Dlg 2" font-size="34.375" font-weight="400" font-style="normal" 
>
<path vector-effect="none" fill-rule="evenodd" d="M565.386,1226.17 L566.005,1266.62 L570.329,1278.68 L959.583,1278.59 L1479.74,1276.57 L1590.13,1275.46 L1590.04,1272.7 L1602.2,1266.26 L1615.33,1259.49 L1629.17,1252.41 L1641.13,1231.47 L1641.31,1231.59 L1648.82,1235.82 L1670.61,1248.3 L1671.48,1249.16 L1689.39,1259.38 L1690.52,1260.27 L1731.45,1341.87 L1765.94,1325.36 L1783.49,1316.85 L1784.7,1316.4 L1791.24,1315.97 L1794.08,1314.43 L1796.01,1312.48 L1797.22,1310.63 L1798.14,1311.67 L1797.41,1322.76 L1797.77,1390.16 L1832.27,1460.53 L1854.76,1504.25 L1864.1,1522.96 L1873.97,1542.45 L1874.92,1543.39 L1876.22,1543.68 L1878.1,1543.63 L1879.81,1543.13 L1881.78,1542.14 L1883.53,1540.97 L1885.79,1539.21 L1888.42,1537.47 L1891.29,1536.59 L1893.78,1536.82 L1896.95,1539.48 L1898.37,1542.72 L1900.45,1548.79 L1902.36,1551.81 L1904.65,1555.09 L1906.72,1560.52 L1908.2,1566.92 L1920.65,1591.56 L1911.76,1596.44 L1925.44,1625.12 L1934.92,1620.55 L1948.37,1647.14 L1950.82,1651.08 L1951.73,1652.29 L1991.72,1730.55 L2091.05,1675.4 L2087.27,1666.16 L2160.1,1625.59 L2236.07,1583.63 L2228.02,1569.36 L2219.41,1549.45 L2222.73,1543.94 L2229.36,1547.73"/>
</g>

<g fill="none" stroke="#9b5ba5" stroke-opacity="1" stroke-width="11.811" stroke-linecap="square" stroke-linejoin="bevel" transform="matrix(0.999751,0,0,0.999751,47.2323,35.4242)"
font-family="MS Shell Dlg 2" font-size="34.375" font-weight="400" font-style="normal" 
>
<path vector-effect="none" fill-rule="evenodd" d="M1746.76,442.056 L1730.96,444.437 L1707.51,397.243 L1549.12,398.093 L1434.73,398.992 L1435.48,472.488 L1435.73,540.728 L1437.68,685.151 L1441.62,1035.61 L1446.79,1589.75 L1447.34,1593.42 L1447.41,1622.6 L1432.19,1680.18 L1435.02,1686.59 L1470.19,1754.16 L1463.31,1758.14 L1457.62,1762.76 L1438.34,1772.61 L1461.16,1817.34 L1496.23,1886.8 L1513.5,1857.36 L1506.73,1844.24 L1509.66,1869.98 L1514.68,1879.25 L1537.31,1922.7 L1542.59,1928.71 L1549.73,1934.83 L1596.26,1940.34 L1656.03,1947.61 L1673.13,1949.93 L1710.09,1961.9 L1754.82,1939.55 L1763.52,1954.89"/>
</g>

<g fill="none" stroke="#44aa42" stroke-opacity="1" stroke-width="11.811" stroke-linecap="square" stroke-linejoin="bevel" transform="matrix(0.999751,0,0,0.999751,47.2323,35.4242)"
font-family="MS Shell Dlg 2" font-size="34.375" font-weight="400" font-style="normal" 
>
<path vector-effect="none" fill-rule="evenodd" d="M2231.87,1546.74 L2240.25,1546.95 L2239.94,1568.09 L2190.36,1567.69 L2164.06,1567.67 L2144.5,1568.66 L2120.22,1568.47 L2074.53,1568.02 L2007.8,1567.19 L1993.36,1565.37 L1967.26,1565.12 L1906.37,1564.91 L1896.27,1565.5 L1882.53,1565.55 L1838.64,1565.1 L1719.65,1563.55 L1666.6,1562.35 L1633.29,1561.99 L1599.38,1561.45 L1584.32,1560.85 L1568.69,1559.86 L1563.74,1560.52 L1549.87,1564.94 L1538.65,1566.81 L1496.02,1574.4 L1431.83,1597.27 L1356.45,1624.93 L1183.56,1688.78 L1157.55,1701.43 L1143.16,1706.38 L1124.62,1711.49 L1063.84,1733.91 L1007.32,1753.44 L1007.38,1736.1 L1006.4,1646.56 L986.587,1668.62"/>
</g>

<g fill="none" stroke="#9b5ba5" stroke-opacity="1" stroke-width="11.811" stroke-linecap="square" stroke-linejoin="bevel" transform="matrix(0.999751,0,0,0.999751,47.2323,35.4242)"
font-family="MS Shell Dlg 2" font-size="34.375" font-weight="400" font-style="normal" 
>
<path vector-effect="none" fill-rule="evenodd" d="M847.491,102.117 L850.244,113.297 L833.011,113.926 L850.572,132.501 L857.339,1560.03 L868.046,1631.93 L896.14,1674.64 L928.452,1675.35 L956.627,1651.56 L990.194,1678.58"/>
<path vector-effect="none" fill-rule="evenodd" d="M2678.56,389.973 L2751.72,389.218 L2752.75,535.101 L2807.51,534.323 L2826.46,534.358 L2827.18,679.719 L2845.94,719.688 L2872.39,777.345 L2901.11,842.533 L2901.19,847.255 L2904.76,855.305 L2934.87,919.283 L2934.93,921.094 L2942.53,937.436 L2966.61,988.87 L3001.69,1064.88 L3021.15,1106.27 L3021.2,1108.25 L3048.07,1165.66 L3076.44,1150.45 L3096.91,1139.93"/>
</g>

<g fill="none" stroke="#44aa42" stroke-opacity="1" stroke-width="11.811" stroke-linecap="square" stroke-linejoin="bevel" transform="matrix(0.999751,0,0,0.999751,47.2323,35.4242)"
font-family="MS Shell Dlg 2" font-size="34.375" font-weight="400" font-style="normal" 
>
<path vector-effect="none" fill-rule="evenodd" d="M2230.74,1557.71 L2241.46,1546.8 L2256.85,1603.7 L2547.1,1445.46 L2532.94,1419.24 L2530.87,1412.62 L2507.22,1362.45 L2562.99,1336.24 L2617.73,1310.5 L2719.65,1258.31 L2673.75,1167.83 L2698.01,1153.12 L2603.07,952.803 L2638.48,945.368 L2652.93,939.259 L2668.4,930.359 L2882.47,849.783 L2930.9,831.401 L2964.73,818.936 L2969.84,817.098 L3007.78,806.161 L3012.89,802.947 L3016.53,801.295 L3019.69,800.675 L3027.02,800.029 L3031.53,799.595 L3034.09,798.58 L3038.85,796.138 L3073.5,762.556 L3091.86,744.863 L3101.23,735.732 L3112.41,727.633 L3119.55,723.758 L3125.29,719.393 L3137.81,708.903 L3142.41,704.497 L3150.68,691.817 L3158.87,677.984 L3175.86,649.751 L3305.16,724.397"/>
<path vector-effect="none" fill-rule="evenodd" d="M3067.77,412.536 L3051.72,440.691 L3030.41,477.091 L2993.04,542.391 L3261.82,699.059 L3273.03,705.757 L3307.62,724.895 L3305.31,735.6 L3299.33,753.254 L3291.42,773.2 L3273.36,823.028 L3242.08,904.381 L3221.1,942.36 L3215.54,947.922 L3165.04,973.315 L3122.56,994.521 L3100.13,1003.02 L3074.68,1009.9 L3048.46,1015.59 L2992.5,1026.8 L2964.2,1032.2 L2940.95,1038.24 L2891.72,1052.57 L2853.76,1056.16 L2839,1062.99 L2806.92,1085.62 L2791.77,1099.04 L2731.77,1134.02 L2614.65,1202.11 L2526.16,1245.4 L2359.15,1323.1 L2269.14,1369.21 L2245.67,1380.55 L2234.27,1385.76 L2231.83,1386.47 L2224.98,1389.06 L2222.13,1390.45 L2216.18,1393.99 L2205.46,1399.87 L2201.61,1401.95 L2197.04,1404.5 L2192.08,1407.45 L2189.82,1408.88 L2187.94,1410.28 L2184.95,1412.73 L2179.82,1417.96 L2174.9,1422.89 L2172.11,1425.27 L2169.87,1426.37 L2214.45,1538.21 L2229.54,1547.48"/>
</g>

<g fill="none" stroke="#d07c32" stroke-opacity="1" stroke-width="11.811" stroke-linecap="square" stroke-linejoin="bevel" transform="matrix(0.999751,0,0,0.999751,47.2323,35.4242)"
font-family="MS Shell Dlg 2" font-size="34.375" font-weight="400" font-style="normal" 
>
<path vector-effect="none" fill-rule="evenodd" d="M2265.95,1598.82 L2302.53,1579.59 L2298.9,1572.69 L2296.25,1563.12 L2287.79,1545.39 L2282.92,1538.57 L2288.63,1528.67 L2280.1,1510.92 L2296.71,1503.22 L2300.88,1498.86 L2305.31,1491.41 L2308.38,1485.21 L2281.41,1404.77 L2219.38,1272.17 L2186.31,1173.25 L2181.49,1141.35 L2151.79,1076.74 L2121.12,1011.77 L2143.58,994.241 L2175.89,967.575 L2172.89,965.556 L2151.71,920.596 L2141.74,899.427 L2241,852.668 L2184.36,733.313 L2126.5,614.09 L2151.21,614.005 L2169.99,613.905 L2166.64,467.226 L2459.15,465.423"/>
</g>

<g fill="none" stroke="#0079c2" stroke-opacity="1" stroke-width="11.811" stroke-linecap="square" stroke-linejoin="bevel" transform="matrix(0.999751,0,0,0.999751,47.2323,35.4242)"
font-family="MS Shell Dlg 2" font-size="34.375" font-weight="400" font-style="normal" 
>
<path vector-effect="none" fill-rule="evenodd" d="M562.622,1206.23 L562.304,1166.11 L562.337,1156.72 L562.391,1132.08 L564.697,1076.87 L565.28,1057.85 L563.949,1036.86 L562.811,1012.25 L561.322,986.183 L566.236,985.938 L643.038,985.526 L696.763,986.576 L723.207,989.121 L812.068,988.658 L1001.67,986.956 L1485.86,976.706 L1494.35,1001.14 L1543.79,1002.14 L1543.24,977.405 L1546.89,971.019 L1553.05,966.95 L1658.96,915.717 L1671.41,900.856 L1690.2,891.763 L1694.93,885.915 L1829.41,822.553 L1835.07,834.311 L1902.08,801.002 L1969.34,765.942 L1953.61,734.8 L1935.19,696.68 L1932.88,691.772 L1932.17,686.441 L1932.17,665.718 L1931.75,620.08 L1994.14,618.785 L2012.84,618.627 L2021.73,616.972 L2019.63,406.794 L2021.48,406.548 L2051.81,467.471 L2053.37,467.492 L2166.81,467.422 L2165.57,396.739"/>
</g>

<g fill="none" stroke="#44aa42" stroke-opacity="1" stroke-width="11.811" stroke-linecap="square" stroke-linejoin="bevel" transform="matrix(0.999751,0,0,0.999751,47.2323,35.4242)"
font-family="MS Shell Dlg 2" font-size="34.375" font-weight="400" font-style="normal" 
>
<path vector-effect="none" fill-rule="evenodd" d="M3097.26,1140.61 L3078.05,1150.53 L3039.82,1170.32 L3011.62,1185.31 L3006.25,1186.01 L2992.08,1187.55 L2974.12,1189.29 L2937.34,1193.68 L2912.54,1197.27 L2891.73,1201.07 L2861.1,1215.62 L2848.89,1222.65 L2822.3,1238.95 L2810.37,1246.24 L2801.05,1252.27 L2792.88,1257.29 L2784.52,1262 L2773.25,1272.54 L2763.98,1282.07 L2756.93,1288.55 L2733.41,1312.6 L2717.01,1329.73 L2698.51,1348.03 L2649.57,1388.84 L2631,1404.53 L2622.48,1412.7 L2611.04,1419 L2599.54,1425.47 L2587.44,1431.38 L2549.11,1453.33 L2525.74,1465.6 L2500.88,1479.32 L2452.63,1506.37 L2414.44,1527.76 L2360.11,1557.78 L2359.02,1558.59 L2357.64,1559.43 L2329.7,1576.44 L2324.47,1579.31 L2305.98,1589.33 L2289.64,1598.38 L2261.45,1614.19 L2241.44,1576.73 L2239.77,1568.22 L2226.98,1568.12 L2226.5,1567.47 L2226.01,1566.3 L2219.2,1549.39 L2222.32,1544.18 L2222.63,1543.73 L2231.14,1548.43 L2238.55,1548.11 L2238.15,1568.17"/>
<path vector-effect="none" fill-rule="evenodd" d="M2459.57,619.382 L2386.86,620.092 L2386.63,615.154 L2388.35,611.821 L2313.51,613.007 L2201.64,613.822 L2169.7,614.193 L2094.64,614.004 L2091.83,620.257 L2091.93,633.461 L2091.97,649.575 L2092.08,680.398 L2095.73,688.172 L2105.44,708.467 L2119.37,737.781 L2123.86,746.006 L2129.47,757.71 L2164.27,832.472 L2169.54,843.269 L2174.77,854.439 L2185.78,877.215 L2187.6,879.545 L2199.95,906.036 L2226.11,962.937 L2252.39,1018.79 L2246.96,1021.74 L2244.13,1023.95 L2241.4,1026.98 L2238.99,1030.18 L2232.73,1043.78 L2220.67,1065.31 L2219.29,1068.47 L2218.54,1071.84 L2218.43,1075.39 L2218.99,1078.93 L2224.21,1089.89 L2228.93,1096.6 L2230.34,1099 L2237.41,1113.89 L2247.76,1136.05 L2249.14,1138.02 L2251.93,1139.36 L2253.77,1139.23 L2255.62,1138.66 L2262.16,1135.76 L2281.44,1128.54 L2283.06,1141.41 L2377.97,1345.01 L2404.07,1402.33 L2419.78,1407.58 L2428.23,1419.47 L2417.94,1425.46 L2428.28,1419.83 L2426.59,1450.55 L2437.8,1474.26 L2393.15,1499.48 L2378.3,1467.47 L2365.39,1440.36 L2360.27,1443.17 L2356.85,1436.36 L2343.03,1455.56 L2341.58,1461.94 L2341.71,1465.22 L2347.31,1477.67 L2332.8,1484.66 L2350.86,1522.15 L2291.17,1554.33 L2295.31,1563.35 L2295.94,1565.62 L2296.67,1570.68 L2297.5,1571.92 L2252.65,1596.33 L2217.62,1546.12 L2230.38,1545.36 L2230.15,1557.49"/>
</g>

<g fill="none" stroke="#0079c2" stroke-opacity="1" stroke-width="11.811" stroke-linecap="square" stroke-linejoin="bevel" transform="matrix(0.999751,0,0,0.999751,47.2323,35.4242)"
font-family="MS Shell Dlg 2" font-size="34.375" font-weight="400" font-style="normal" 
>
<path vector-effect="none" fill-rule="evenodd" d="M806.477,1424.6 L798.17,1386.98 L792.996,1387.31 L788.024,1383.84 L776.445,1368.94 L771.185,1351.76 L1571.72,1349.19 L1707.19,1353.09 L1797.83,1309.72 L1797.41,1322.76 L1797.64,1391.38 L1873.98,1542.47 L1874.96,1543.48 L1876.27,1543.73 L1878.22,1543.56 L1880.08,1543.05 L1883.01,1541.41 L1888.51,1537.39 L1891.08,1536.6 L1893.77,1536.81 L1896.89,1539.34 L1897.48,1539.02 L1915.2,1528.65 L1919.02,1526.6 L1959.43,1510.14 L1991.23,1498.31 L2016.32,1487.61 L2062.09,1469.33 L2135.58,1439.75 L2166,1427.9 L2172.1,1424.96 L2174,1423.47 L2178.85,1418.49 L2184.9,1412.26 L2189.32,1408.76 L2196.6,1404.29 L2204.89,1399.8"/>
<path vector-effect="none" fill-rule="evenodd" d="M2898.12,385.906 L2899.73,562.831 L2901.59,741.398 L2854.54,738.424 L2771.69,775.079 L2666.25,822.554 L2662.22,820.538 L2644.34,856.109 L2631.6,881.708 L2623.88,870.192 L2604.61,870.63 L2503.2,873.343 L2503.4,950.019 L2483.63,950.292 L2463.67,950.238 L2463.76,964.128 L2464.34,978.412 L2434.88,977.662 L2394.25,977.566 L2353.49,977.435 L2353.02,904.665 L2352.62,865.892 L2351.09,857.068 L2350.69,835.974 L2349.24,829.902 L2346.06,824.473 L2336.87,817.505 L2318.68,804.096 L2318.06,793.146 L2314.77,793.397 L2315.18,816.624 L2306.55,821.421 L2241.02,852.972 L2186.56,878.504 L2112.73,913.57 L2097.33,921.174 L2087.44,928.482 L2053.73,944.451 L2054.69,946.097 L2055.19,947.259 L1919.38,1011.89 L1807.86,1064.27 L1805.6,1058.94 L1805.42,1056.13 L1808.53,1051.97 L1810.38,1047.79 L1810.78,1042.31 L1807.38,1034.02 L1800.54,1024.94 L1791.23,1021.4 L1787,1012.75 L1761.49,1024.82 L1740.52,1034.88 L1720.11,1044.51 L1694.23,1056.81 L1695.06,1058.67 L1599.98,1105.71 L1572.09,1105.44 L1547.78,1105.72 L1521.68,1106.16 L1494.93,1105.94 L1494.76,1126.73 L1494,1128.28 L1485.13,1129.26 L1442.33,1129.59 L1366.99,1130.62 L1295.73,1130.89 L1150.1,1132.67 L1005.44,1132.88 L674.994,1132.44 L592.939,1133.01 L548.473,1133.7 L515.018,1134.07 L401.549,1135.49 L305.705,1138.43 L262.529,1143.04 L132.546,1144.58 L133.625,1030.37 L183.717,1016.29"/>
</g>

<g fill="none" stroke="#d07c32" stroke-opacity="1" stroke-width="11.811" stroke-linecap="square" stroke-linejoin="bevel" transform="matrix(0.999751,0,0,0.999751,47.2323,35.4242)"
font-family="MS Shell Dlg 2" font-size="34.375" font-weight="400" font-style="normal" 
>
<path vector-effect="none" fill-rule="evenodd" d="M2335.51,1569.83 L2260.47,1610.85 L2242.33,1579.16 L2241.46,1546.8 L2178.29,1516.26 L2042.58,1553.04 L1973.06,1540.54 L1945.03,1516.74 L1874.63,1360.69 L1551.14,1170.54 L1544.81,1160.03 L1539.03,1147.67 L1536.11,1138.62 L1533.9,1126.46 L1533.78,1106.44 L1534.29,1097.74 L1535.09,1084.33 L1534.64,1079.09 L1534.33,1069.85 L1531.17,1057.53 L1528.56,1050.27 L1524.19,1042.92 L1513.27,1031.5 L1510.83,1030.8 L1504.09,1026.26 L1493.08,1021.74 L1471.51,1018.2 L1454.28,1014.26 L1439.3,1012.67 L1390.58,1011.03 L1370.62,1012.13 L1358.85,1014.03 L1349.75,1017.06 L1319.63,1028.23 L1246.94,986.685 L1094.14,899.29 L853.477,763.372 L851.669,477.29 L778.742,477.678 L778.276,407.178 L851.01,406.332 L851.632,476.218"/>
</g>

<g fill="none" stroke="#0079c2" stroke-opacity="1" stroke-width="11.811" stroke-linecap="square" stroke-linejoin="bevel" transform="matrix(0.999751,0,0,0.999751,47.2323,35.4242)"
font-family="MS Shell Dlg 2" font-size="34.375" font-weight="400" font-style="normal" 
>
<path vector-effect="none" fill-rule="evenodd" d="M504.169,552.237 L554.949,550.374 L599.085,550.21 L635.184,549.464 L706.684,551.71 L706.508,515.415 L706.096,407.664 L851.956,405.523 L998.794,404.44 L1120.63,402.877 L1106.37,382.874 L1126.02,370.046 L1142.48,369.797 L1142.6,379.959 L1142.72,402.504 L1153.25,401.442 L1166.22,400.785 L1181.32,400.758 L1272.68,400.173 L1341.83,399.69 L1419.49,398.567 L1580.5,397.489 L1656.42,397.363 L1687.18,397.156 L1699.52,397.011 L1707.91,397.089 L1713.72,409.094 L1731.8,446.051 L1732.17,446.797 L1732.66,446.776 L1732.24,445.909 L1730.61,442.439 L1709.01,396.767 L1873.56,394.17 L1890.3,395.797 L1900.36,397.179 L1918.6,398.37 L1934.12,398.233 L2038.22,396.667 L2093.64,396.398 L2160.72,396.503 L2558.93,390.777 L2582.68,389.828 L2644.56,388.419 L2733.84,386.997 L2849.16,385.94 L2885.35,384.217 L2946.81,383.843 L2972.04,383.695 L2988.22,383.543 L3087.22,383.885 L3067.36,412.882 L3089.05,424.452 L3100.32,430.345 L3103.92,430.552 L3107.42,428.633 L3103.94,430.592 L3099.82,430.185 L3088.92,424.156 L3067.38,412.903 L2992.78,542.286 L3306.84,724.973"/>
<path vector-effect="none" fill-rule="evenodd" d="M575.765,1436.67 L804.763,1424.46 L1363.84,1423.94 L1445.69,1422.88 L1605.95,1421.33 L1647.05,1425.45 L1673.84,1427.82 L1716,1427.65 L1860.21,1427.1 L1861.9,1426.97 L1868.22,1425.57 L1974.33,1382.75 L1983.14,1404.71 L2084.4,1364.11 L2120.11,1349.73 L2110.63,1327.4 L2126.42,1321 L2134.99,1316.31 L2144.57,1312.1 L2151.92,1309.25 L2162.33,1303.52 L2174.35,1296.05 L2186.99,1288.26 L2220.23,1272.75 L2245.97,1260.84 L2255.81,1259.1 L2270.06,1252.91 L2274.02,1252.71 L2278.57,1255.12 L2284.23,1267.15 L2285.5,1268.1 L2287.44,1268.37 L2332.74,1247.22 L2370.02,1229.93 L2431.94,1201.05 L2537.17,1151.75 L2547.1,1147.42 L2594.84,1123.01 L2666.27,1086.52 L2655.42,1063.96 L2675.1,1054.35 L2702.83,1040.11 L2753.22,1016.08 L2787.33,1000.15 L2812.62,996.71 L2880.27,965.281 L2909.64,951.888 L2942.15,936.762 L2995.25,911.959 L3110.99,857.115 L3182.6,823.248 L3271.43,781.166 L3289.74,772.695 L3291.53,771.868 L3294.93,761.89 L3298.37,752.459 L3301.75,743.179 L3304.44,735.504 L3306.78,725.174"/>
</g>

<g fill="none" stroke="#9b5ba5" stroke-opacity="1" stroke-width="11.811" stroke-linecap="square" stroke-linejoin="bevel" transform="matrix(0.999751,0,0,0.999751,47.2323,35.4242)"
font-family="MS Shell Dlg 2" font-size="34.375" font-weight="400" font-style="normal" 
>
<path vector-effect="none" fill-rule="evenodd" d="M2718.14,1526.91 L2730.82,1513.95 L2718.32,1484.95 L2698.32,1491.76 L2686.03,1495.25 L2670.06,1502.91 L2666.38,1502.9 L2657.17,1500.25 L2653.86,1498.07 L2649.87,1493.78 L2618.48,1434.3 L2610.03,1419.63 L2605.4,1410.08 L2603.23,1402.52 L2595.26,1385.77 L2572.14,1398.67 L2546.45,1343.67 L2507.13,1362.25 L2384.47,1098.08 L2382.33,1094.81 L2371.91,1084.15 L2369.17,1079.8 L2341.74,1025.69 L2338.72,1020.6 L2314.34,993.465 L2300.52,977.734 L2298.02,972.733 L2295.27,966.595 L2290.47,953.776 L2283.25,938.788 L2277.15,926.116 L2270.45,914.766 L2260.69,894.806 L2216.44,801.53 L2177.13,718.95 L2145.54,652.803 L2116.97,596.235 L2089.41,541.575 L2070.23,503.758 L2051.8,467.461 L2020.15,467.314 L1906.34,469.898 L1745.11,470.57 L1741.55,463.291 L1734.92,448.934"/>
</g>

<g fill="none" stroke="#44aa42" stroke-opacity="1" stroke-width="11.811" stroke-linecap="square" stroke-linejoin="bevel" transform="matrix(0.999751,0,0,0.999751,47.2323,35.4242)"
font-family="MS Shell Dlg 2" font-size="34.375" font-weight="400" font-style="normal" 
>
<path vector-effect="none" fill-rule="evenodd" d="M1584.57,739.519 L1583.93,691.652 L1624.9,691.655 L1625.69,764.505 L1680.59,764.716 L1681.42,772.334 L1681.46,788.034 L1681.66,814.351 L1682.33,836.674 L1683.79,839.605 L1686.1,841.592 L1686.18,867.037 L1740.29,982.051 L1782.24,1067.35 L1827.69,1165.17 L1858.44,1230.15 L1877.71,1270.85 L1885.15,1282.73 L1952.32,1250.92 L1972.23,1241.36 L2003.05,1246.76 L2001.29,1256.22 L1999.63,1267.92 L2035.77,1357.75 L2085.88,1482.89 L2120.11,1568.66 L2121,1571.64 L2125.63,1579.77 L2139.65,1605.28 L2158.45,1638.89 L2213.85,1607.92 L2231.4,1598.32 L2241.33,1592.83 L2228.21,1569.24 L2220.51,1548.91 L2223.18,1544.67 L2225.96,1546.47 L2228.78,1548.09"/>
</g>

<g fill="none" stroke="#0079c2" stroke-opacity="1" stroke-width="11.811" stroke-linecap="square" stroke-linejoin="bevel" transform="matrix(0.999751,0,0,0.999751,47.2323,35.4242)"
font-family="MS Shell Dlg 2" font-size="34.375" font-weight="400" font-style="normal" 
>
<path vector-effect="none" fill-rule="evenodd" d="M999.948,843.323 L1001.52,769.561 L1024.02,768.018 L1096.56,767.117 L1104.83,767.009 L1114.99,767.254 L1124.96,767.241 L1145.94,767.016 L1173.98,766.433 L1211.5,765.663 L1257.66,764.636 L1290.09,763.947 L1293,763.735 L1322.92,763.871 L1347.87,763.621 L1576.59,764.103 L1692.08,763.714 L1800.46,762.657 L1816.23,795.724 L1829.09,822.688 L1834.72,834.698 L1949.6,784.97 L1972.13,774.609"/>
</g>

<g fill="none" stroke="#44aa42" stroke-opacity="1" stroke-width="11.811" stroke-linecap="square" stroke-linejoin="bevel" transform="matrix(0.999751,0,0,0.999751,47.2323,35.4242)"
font-family="MS Shell Dlg 2" font-size="34.375" font-weight="400" font-style="normal" 
>
<path vector-effect="none" fill-rule="evenodd" d="M2229.65,1547.22 L2214.56,1537.96 L2200.25,1504.06 L2184.54,1464.98 L2151.17,1478.69 L2105.41,1364.6 L2101.87,1357.96 L2079.4,1301.92 L2076.23,1294.13 L2075.3,1290.51 L2075.2,1285.8 L2076.55,1282.59 L2082.37,1276.14 L2084.3,1273.72 L2086.3,1268.45 L2080.82,1252.7 L2046.99,1164.02 L2033.85,1136.36 L1995.84,1154.17 L1969.6,1101 L1964.38,1087.64 L1958.31,1075.74 L1953.31,1067 L1949.28,1062.31 L1946.24,1059.58 L1941.71,1055.73 L1937.92,1050.33 L1765.96,689.78 L1823.06,689.71 L1876.07,689.806 L1874.08,471.481 L1742.69,472.088 L1709.59,398.073 L1727.81,400.694"/>
<path vector-effect="none" fill-rule="evenodd" d="M1301.31,1646.04 L1355.78,1625.71 L1371.44,1640.39 L1373.58,1643.33 L1393.19,1685.74 L1438.23,1772.32 L1457.2,1762.77 L1462.95,1757.96 L1470.11,1754.04 L1478.01,1750.21 L1521.74,1836 L1525.74,1836.01 L1530.93,1826.99 L1532.48,1827.94 L1534.41,1828.51 L1536.41,1827.99 L1645.37,1771.21 L1686.08,1749.84 L1718.29,1732.75 L1747,1717.67 L1756.75,1719.7 L1766.34,1721.37 L1771.95,1721.89 L1778.3,1722.01 L1791.59,1721.89 L1804.72,1721.56 L1816.38,1721.02 L1817.53,1720.84 L1855.61,1700.78 L1901.13,1676.94 L1951.29,1651.69 L2003.97,1624.61 L2006.47,1629.89 L2007.53,1632.15 L2009.99,1637.49 L2035.71,1627.34 L2046.15,1623.21 L2056.38,1619.44 L2061.9,1617.24 L2067.1,1615.24 L2090.36,1606.08 L2098.33,1602.84 L2116.99,1595.41 L2123.86,1591.59 L2130.2,1588.09 L2153.28,1629.49 L2171.94,1618.95 L2192.91,1607.51 L2213,1596.33 L2235.85,1583.62 L2227.78,1569.39 L2226.33,1567.56 L2218.58,1549.06 L2230.97,1545.58 L2231.72,1547.69"/>
</g>

<g fill="none" stroke="#0079c2" stroke-opacity="1" stroke-width="11.811" stroke-linecap="square" stroke-linejoin="bevel" transform="matrix(0.999751,0,0,0.999751,47.2323,35.4242)"
font-family="MS Shell Dlg 2" font-size="34.375" font-weight="400" font-style="normal" 
>
<path vector-effect="none" fill-rule="evenodd" d="M1942.52,1758 L1897.52,1783.16 L1831.36,1653.12 L1786.03,1564.42 L1783.82,1564.39 L1775.86,1548.91 L1747.19,1492.33 L1729.15,1456.95 L1719.79,1438.41 L1714.47,1427.82 L1691.41,1427.88 L1653.43,1351.94 L1652.33,1350.16 L1649.4,1344.58 L1623.5,1293.02 L1609.38,1263.07 L1628.96,1252.2 L1649.5,1216.81 L1670.07,1205.98 L1772.35,1157.93 L1814.43,1137.54 L1816.6,1142.04 L1886.34,1108.78 L2114.04,1003.51 L2172.13,1130.53 L2170.87,1135.3 L2175.29,1136.01 L2178.34,1136.2 L2182.15,1133.62 L2184.27,1129.85 L2188.19,1138.1 L2236.31,1114.99 L2246.85,1137.42 L2250.8,1141.04 L2253.31,1141.52 L2267.95,1137.17 L2306.69,1118.84 L2313.48,1116.8 L2317.75,1118.52 L2320.37,1123.8 L2367.61,1101.45 L2381.36,1092.58 L2385.73,1089.76 L2387.2,1087.52 L2392.59,1075.87 L2390.52,1068.82 L2397.66,1056 L2400.92,1050.61 L2404.99,1045.37 L2410.99,1040.51 L2423.09,1034.19 L2425.32,1032.69 L2437.61,1020.52 L2472.43,1003.44 L2550.93,963.863 L2591.27,953.805 L2596.83,953.717 L2602.71,952.766 L2620.07,991.957 L2724.24,993.462 L2739.77,985.622 L2849.05,1223.22 L2861.56,1216.11 L2871.27,1211.52"/>
</g>

<g fill="none" stroke="#d07c32" stroke-opacity="1" stroke-width="11.811" stroke-linecap="square" stroke-linejoin="bevel" transform="matrix(0.999751,0,0,0.999751,47.2323,35.4242)"
font-family="MS Shell Dlg 2" font-size="34.375" font-weight="400" font-style="normal" 
>
<path vector-effect="none" fill-rule="evenodd" d="M1994.17,1217.05 L2068.33,1180.97 L2081.67,1208.84 L2114.7,1290.43 L2126.47,1319.93 L2075.06,1340.29 L2099.19,1401.48 L2113.86,1448.76 L2127.51,1492.99 L2133.98,1511.93 L2139.5,1528.08 L2108.51,1537.78 L2120.45,1567.87 L2029.16,1566.2 L2036.28,1585.18 L2031.99,1589.43 L2030.51,1591.62 L2025.66,1606.75 L2019.48,1616.02 L2017.71,1617.42 L1915.25,1669.84 L1890.99,1682.17 L1855.63,1700.79 L1826.54,1716.1 L1817.39,1720.85 L1804.81,1721.54 L1782.92,1722.11 L1772,1721.89 L1766.47,1721.44 L1756.72,1719.6 L1747.01,1717.67 L1664.03,1761.46 L1702.2,1836.5 L1711.63,1841.48 L1716.98,1852.14 L1678.64,1897.6 L1635.95,1972.8 L1502.29,2044.64 L1460.04,2091.29 L1446.27,2112.39 L1449.12,2114.84 L1465.78,2122.64 L1481.19,2126.65 L1489.32,2127.61 L1497.44,2126.03 L1511.27,2121.51 L1520.07,2118.83 L1524.22,2118.18 L1524.67,2124.96 L1397.99,2321.18 L1396.34,2322.62 L1386.55,2305.43 L1379.45,2297.18 L1356.08,2254.93"/>
</g>

<g fill="none" stroke="#44aa42" stroke-opacity="1" stroke-width="11.811" stroke-linecap="square" stroke-linejoin="bevel" transform="matrix(0.999751,0,0,0.999751,47.2323,35.4242)"
font-family="MS Shell Dlg 2" font-size="34.375" font-weight="400" font-style="normal" 
>
<path vector-effect="none" fill-rule="evenodd" d="M1761.14,854.626 L1790.14,913.847 L1824.82,985.058 L1837.86,1011.96 L1857.34,1052.35 L1880.99,1101.6 L1884.38,1106.27 L1886.96,1109.42 L1890.3,1116.43 L1941.52,1225.71 L1945.11,1238 L1962.74,1271.12 L1966.91,1279 L1982.92,1319.01 L2058.58,1509.24 L2071.8,1542.26 L2079.13,1539.25 L2089.01,1538.07 L2103.16,1539.5 L2108.52,1537.81"/>
<path vector-effect="none" fill-rule="evenodd" d="M2199.55,1580.36 L2191.6,1565.04 L2262.05,1567.41 L2275.81,1592.95 L2301.97,1579.91 L2298.03,1572.77 L2295.44,1563.29 L2287.05,1545.76 L2282.01,1538.49 L2375.75,1379.63 L2400.06,1332.31 L2419.03,1295.08 L2435.35,1263 L2448.69,1236.93 L2478.55,1178.98 L2497.35,1142.33 L2520.78,1097 L2523.29,1092.3 L2525.49,1088.03 L2534.74,1069.84 L2579.92,981.845 L2611.34,920.732 L2620.45,902.788 L2624.56,894.718 L2628.46,887.048 L2630.35,883.242 L2631.46,881.14 L2654.39,835.817 L2673.18,799.07 L2751.82,644.426 L2797.93,554.09 L2832.28,487.026 L2863.56,425.99 L2873.25,407.002 L2879.48,394.865 L2884.26,386.199 L2897.96,385.701"/>
</g>

<g fill="none" stroke="#d07c32" stroke-opacity="1" stroke-width="11.811" stroke-linecap="square" stroke-linejoin="bevel" transform="matrix(0.999751,0,0,0.999751,47.2323,35.4242)"
font-family="MS Shell Dlg 2" font-size="34.375" font-weight="400" font-style="normal" 
>
<path vector-effect="none" fill-rule="evenodd" d="M2335.51,1569.83 L2260.47,1610.85 L2241.82,1567.02 L2178.29,1516.26 L2053.73,1557.29 L1975.9,1548.69 L1945.03,1516.74 L1874.63,1360.69 L1642.62,1228.67 L1628.78,1252.05 L1589.74,1272.55 L1589.69,1275.61 L857.383,1279.01 L857.717,1088.97"/>
<path vector-effect="none" fill-rule="evenodd" d="M1993.39,1215.9 L2068.47,1180.29 L2082.19,1208.7 L2102.75,1259.46 L2144.5,1363.98 L2236.14,1317.23 L2335.21,1531.08 L2390.85,1500.07 L2444.87,1468.49 L2504.83,1436.02 L2570.61,1399.23 L2595.23,1385.58 L2654.06,1357.87 L2627.67,1305.69 L2648.59,1294.81 L2719.62,1258.52 L2742.56,1303.32 L2754.14,1291.4 L2784.53,1262 L2848.64,1222.36 L2854.36,1218.85 L2858.12,1216.67 L2860.98,1215.14 L2891.28,1200.62 L2909.43,1197.18 L2924.26,1194.9 L2953.9,1191.07 L3011.43,1184.43 L3096.43,1139.21"/>
</g>

<g fill="none" stroke="#44aa42" stroke-opacity="1" stroke-width="11.811" stroke-linecap="square" stroke-linejoin="bevel" transform="matrix(0.999751,0,0,0.999751,47.2323,35.4242)"
font-family="MS Shell Dlg 2" font-size="34.375" font-weight="400" font-style="normal" 
>
<path vector-effect="none" fill-rule="evenodd" d="M2280.18,1600.11 L2260.47,1610.85 L2241.82,1567.02 L2226.84,1565.72 L2230.97,1545.58 L2241.46,1546.8 L2241.82,1567.02 L2226.07,1565.53 L2197.47,1496.51 L2168.72,1424.32 L2108.35,1272.37 L2082.65,1208.5 L2068.65,1179.66 L1973.85,1225.3 L1894.01,1263.89 L1811.47,1303.52 L1629.39,920.092 L1621.06,892.902 L1619.8,819.69 L1621.72,809.478 L1621.28,764.354 L1625.97,764.308 L1625.39,690.897 L1583.06,690.765 L1581.96,617.879 L1513.78,617.61 L1436.11,617.239 L1327.05,617.562 L1327.45,641.336 L1324.33,644.182 L1319.37,647.142 L1308.72,654.21 L1218.96,654.47 L1145.21,657.765 L963.548,659.06 L1145.2,657.684 L1144.89,631.444 L1144.81,621.405 L1144.69,603.267 L1144.59,585.018 L1144.36,566.555 L1144.25,548.104 L1143.84,511.713 L1143.61,493.229 L1143.38,475.2 L1143.18,456.798 L1142.81,426.454 L1142.43,402.569 L1142.15,369.931 L1128.36,372.653 L1110.47,382.334 L1107.18,383.993 L1083.52,351.468 L1052.18,319.709 L1058.57,307.007 L1071.3,292.831 L1075.23,289.993 L1079.64,288.559 L1098.58,288.212 L1098.57,297.936 L1141.5,297.316"/>
</g>

<g fill="none" stroke="#9b5ba5" stroke-opacity="1" stroke-width="11.811" stroke-linecap="square" stroke-linejoin="bevel" transform="matrix(0.999751,0,0,0.999751,47.2323,35.4242)"
font-family="MS Shell Dlg 2" font-size="34.375" font-weight="400" font-style="normal" 
>
<path vector-effect="none" fill-rule="evenodd" d="M1288.73,399.759 L1289.4,508.039 L1290.48,598.232 L1290.5,613.719 L1293.94,837.508 L1295.98,1020.91 L1296.57,1187.46 L1296.7,1251.83 L1298.23,1407.28 L1298.72,1424.85 L1298.82,1443.22 L1299.11,1477.63 L1302,1764.26 L1303.37,1826.29 L1302.17,1834.87 L1298.36,1846.67 L1298.11,1855.46 L1300.1,1861.55 L1312.55,1886.22 L1328.23,1901.27 L1355.18,1954.6 L1361.2,1977.45 L1362.44,1981.34 L1381.89,2005.99 L1387.56,2020.39 L1397.5,2049.22 L1409.89,2068.05 L1443.36,2109.14 L1449.02,2114.31 L1466.04,2122.41 L1481.19,2126.3 L1489.23,2127.14 L1531.67,2118.7 L1603.32,2145.23 L1604.73,2140.17 L1615.68,2119.62 L1644.67,2072.89 L1649.97,2065 L1655.85,2059.61"/>
<path vector-effect="none" fill-rule="evenodd" d="M972.479,1716.39 L978.435,1705.89 L981.759,1688.93 L980.77,1679.01 L977.807,1670.5 L970.885,1664.4 L963.564,1660.48 L967.189,1651.27 L972.521,1644.67 L1090.07,1643.38 L1093.04,1678.77 L1096.67,1716.98 L1099.15,1719.6 L1156.15,1698.03 L1155.05,1690.38 L1154.84,1672.11 L1153.98,1617.9 L1154.4,1593.52 L1154.07,1570.53 L1153.27,1467.18 L1153.31,1400.06 L1150.9,1279.51 L1149.49,1132.71 L1149.38,1088.02 L1146.52,1077.99 L1146.33,1066.11 L1146.2,1040.31 L1149.1,1028.3 L1147.63,936.051 L1145.4,681.13 L1145.29,656.836 L1144.66,566.652 L1142.29,369.752 L1126.05,370.027 L1118.85,374.616 L1106.38,382.844 L1083.14,351.298 L1052.21,319.69 L1058.66,306.928 L1071.42,292.732 L1079.99,288.536 L1098.61,288.061 L1098.3,256.363 L1141.31,255.764"/>
</g>

<g fill="none" stroke="#d07c32" stroke-opacity="1" stroke-width="11.811" stroke-linecap="square" stroke-linejoin="bevel" transform="matrix(0.999751,0,0,0.999751,47.2323,35.4242)"
font-family="MS Shell Dlg 2" font-size="34.375" font-weight="400" font-style="normal" 
>
<path vector-effect="none" fill-rule="evenodd" d="M1876.05,813.636 L1882.69,810.493 L1888.55,805.423 L1891.08,803.644 L1895.99,801.285 L1900.6,799.254 L1902.75,798.549 L1969.75,766.728 L2148.04,1143.68 L2124.6,1154.34 L2172.33,1257.23 L2185.1,1251.44 L2189.97,1261.74 L2195.02,1273.55 L2195.79,1277.74 L2204.08,1294.05 L2227.48,1345.1 L2228.43,1349.22 L2227.98,1353.49 L2226.78,1356.1 L2223.65,1362.6 L2223.42,1364.69 L2223.46,1367.05 L2223.77,1368.91 L2224.67,1371.28 L2231.6,1385.83 L2225.15,1388.39 L2222.24,1389.86 L2207.7,1397.91 L2204.59,1399.47 L2195.51,1404.5 L2191.92,1406.65 L2189.16,1408.51 L2185.45,1411.37 L2182.97,1413.72 L2173.86,1423.3 L2171.93,1424.69 L2169.46,1425.94 L2165.07,1427.4 L2152.15,1432.44 L2110.45,1327.46 L2093.33,1334.67 L2076.27,1287.84 L2087.9,1267.85 L2067.08,1216.18 L2053.8,1186.89 L1993.58,1216.72 L1947.06,1239.3 L1835.96,1007.14 L1902.32,977.058 L1834.49,834.431 L1835.39,832.659 L1839.05,830.943 L1844.41,829.16 L1857.62,822.792 L1876.01,813.655"/>
</g>

<g fill="none" stroke="#44aa42" stroke-opacity="1" stroke-width="11.811" stroke-linecap="square" stroke-linejoin="bevel" transform="matrix(0.999751,0,0,0.999751,47.2323,35.4242)"
font-family="MS Shell Dlg 2" font-size="34.375" font-weight="400" font-style="normal" 
>
<path vector-effect="none" fill-rule="evenodd" d="M565.39,842.229 L573.258,842.19 L582.458,842.219 L586.66,842.625 L595.394,844.121 L600.613,844.245 L608.331,843.888 L615.592,842.45 L620.229,842.157 L649.206,842.346 L711.358,843.274 L748.672,842.871 L893.152,842.295 L1220.48,838.654 L1293.92,837.427 L1366.8,837.544 L1439.43,836.131 L1585.17,837.647 L1681.99,836.596 L1737.8,836.599 L1746.79,836.425 L1750.38,838.196 L1756.19,844.105 L1761.34,854.792 L1740.74,864.214 L1780.21,946.117 L1782.32,950.82 L1786.07,952.32 L1789.39,955.086 L1805.8,987.347 L1826.56,1030.97 L1824.08,1039.89 L1824.13,1042.87 L1860.05,1121.75 L1919.76,1251.26 L1938.61,1290.04 L1992.14,1426.83 L2035.24,1534.46 L2040.12,1546.96 L2046.46,1562.79 L2049.58,1564.07 L2075.43,1554.22 L2082.13,1551.09 L2088.98,1547.04 L2093.83,1544.81 L2109.84,1539.2 L2141.37,1530.09 L2150.08,1528.54 L2166.46,1525.98 L2173.82,1523.76 L2182.08,1519.68 L2185.46,1517 L2199.94,1504.62 L2214.34,1538.61 L2228.1,1546.84 L2230.12,1548"/>
</g>

<g fill="none" stroke="#0079c2" stroke-opacity="1" stroke-width="11.811" stroke-linecap="square" stroke-linejoin="bevel" transform="matrix(0.999751,0,0,0.999751,47.2323,35.4242)"
font-family="MS Shell Dlg 2" font-size="34.375" font-weight="400" font-style="normal" 
>
<path vector-effect="none" fill-rule="evenodd" d="M3307.15,725.19 L3306.07,730.135 L3304.9,735.491 L3285.54,789.876 L3264.94,845.855 L3251.36,879.71 L3242.27,903.667 L3229.88,926.231 L3220.54,942.997 L3217.7,945.857 L3215.11,947.914 L3161.51,833.394 L3153.69,815.98 L3137.59,782.011 L3112.22,727.307 L3100.87,735.088 L3084,751.06 L3068.2,766.544 L3063.41,763.517 L3022.14,739.483 L2976.09,712.732 L2918.02,678.935 L2912.5,679.582 L2915.3,674.782 L2947.8,618.565 L2942.43,615.425 L2844.83,615.309 L2790.45,614.996 L2768.66,614.968 L2764.78,615.776 L2753.8,616.139 L2614.63,680.335 L2609.11,682.82 L2534.77,683.961 L2533.08,537.762 L2459.07,538.586 L2460.38,620.125 L2460.95,684.719 L2437.83,684.876 L2414.23,685.186 L2371.64,685.92 L2242.69,686.861 L2160.71,687.497 L2075.32,686.307 L2022.43,687.049 L2011.86,687.447 L2004.44,688.07 L1994.97,688.379 L1980.52,688.953 L1929.07,689.301 L1908.84,689.557 L1875.96,690.431 L1849.93,690.367 L1725.38,690.653 L1674.62,691.146 L1624.93,691.231 L1583.31,691.195 L1530.29,690.487 L1476.38,690.233 L1423.28,690.758 L1364.26,691.076 L1290.99,691.213 L1220.15,690.391 L1147.84,693.838 L856.84,696.473 L773.881,697.544 L709.822,697.803 L673.629,697.035 L664.045,696.503 L655.187,696.007 L643.632,695.825 L562.083,696.071"/>
</g>

<g fill="none" stroke="#44aa42" stroke-opacity="1" stroke-width="11.811" stroke-linecap="square" stroke-linejoin="bevel" transform="matrix(0.999751,0,0,0.999751,47.2323,35.4242)"
font-family="MS Shell Dlg 2" font-size="34.375" font-weight="400" font-style="normal" 
>
<path vector-effect="none" fill-rule="evenodd" d="M2459.05,464.39 L2166.81,467.412 L2170.35,614.721 L2126.17,614.377 L2111.79,614.198 L2094.79,614.128 L2080.39,614.029 L2040.95,613.832 L2021.66,617.133 L2022.82,706.566 L2068.75,803.063 L2073.74,809.368 L2080.28,814.762 L2084.95,819.807 L2088.79,826.139 L2125.72,905.13 L2126.9,910.945 L2127.11,925.647 L2142.61,957.811 L2164.35,947.599 L2172.89,966.021 L2175.93,968.031 L2169.34,973.645 L2178.59,992.828 L2212.44,1062.96 L2212.18,1068.55 L2208.34,1072.47 L2165.08,1093.18 L2179.23,1122.74 L2183.88,1128.09 L2185.01,1130.53 L2226.65,1219.09 L2246.41,1261.39 L2266.24,1304.23 L2244.42,1314.54 L2251.45,1331.06 L2257.69,1344.06 L2279.87,1333.52 L2283.57,1341.32 L2290.59,1357.28 L2299.1,1375.92 L2301.48,1380.23 L2308.55,1393.22 L2317.4,1412.1 L2326.78,1432.14 L2328.98,1438.15 L2333.97,1449.36 L2282.96,1533.44 L2297.21,1572.13 L2272.2,1585.8 L2262.05,1567.41 L2226.84,1565.72 L2218.21,1546.35 L2230.94,1545.61 L2230.69,1557.72"/>
<path vector-effect="none" fill-rule="evenodd" d="M2232.05,1547.72 L2239.42,1547.61 L2239.36,1559.66 L2239.34,1572 L2247.94,1588.8 L2205.19,1612.35 L2162.88,1635.87 L2118.17,1660.61 L2092.13,1674.98 L2091.17,1675.53 L2058.84,1693.31 L2004.38,1723.63 L1955.81,1750.59 L1924.84,1767.77 L1897.49,1783.04 L1850.2,1808.66 L1828.13,1820.62 L1803.9,1833.84 L1767.96,1853.24 L1721.76,1876.34 L1679.4,1897.19 L1633.19,1919.76 L1588.36,1940.96 L1540.61,1965.38 L1535.79,1967.42 L1537.01,1971.03 L1536.45,1977.53 L1528.98,1989.39 L1520.72,1999.27 L1515.02,2007.65 L1482.49,2057.3 L1435.11,2129.3 L1354.97,2252.58"/>
</g>

<g fill="none" stroke="#0079c2" stroke-opacity="1" stroke-width="11.811" stroke-linecap="square" stroke-linejoin="bevel" transform="matrix(0.999751,0,0,0.999751,47.2323,35.4242)"
font-family="MS Shell Dlg 2" font-size="34.375" font-weight="400" font-style="normal" 
>
<path vector-effect="none" fill-rule="evenodd" d="M758.747,709.772 L708.742,679.29 L706.274,622.252 L706.771,551.844 L999.456,548.537 L1143.69,547.728 L1237.45,546.015 L1277.44,544.626 L1290.11,544.344 L1435.84,544.591 L1581.53,544.966 L1690.09,544.448 L1711.77,544.511 L1771.71,544.028 L1778.12,543.56 L1852.44,544.034 L1927.17,543.315 L1971.58,542.03 L2011.51,540.927 L2029.68,540.708 L2047.94,541.127 L2090.49,541.849 L2169.7,541.159 L2315.04,539.608 L2459.26,538.479 L2606.19,536.719 L2734.69,534.322 L2830.27,533.457 L2925.9,531.7 L2953.75,590.501 L2960.34,596.828 L2983.54,610.602 L3133.77,696.822 L3141.99,704.247 L3146.87,696.136 L3148.78,694.098 L3175.67,649.243 L3243.19,690.208 L3304.27,725.231"/>
</g>

<g fill="none" stroke="#9b5ba5" stroke-opacity="1" stroke-width="11.811" stroke-linecap="square" stroke-linejoin="bevel" transform="matrix(0.999751,0,0,0.999751,47.2323,35.4242)"
font-family="MS Shell Dlg 2" font-size="34.375" font-weight="400" font-style="normal" 
>
<path vector-effect="none" fill-rule="evenodd" d="M1655.88,2059.78 L1695.34,2015.88 L1712.23,1987.88 L1718.68,1981.55 L1724.22,1978.42 L1855.81,1904.51 L1881.79,1869.36 L1807.74,1724.98 L1794.63,1709.59 L1755.45,1634.51 L1685.86,1498.06 L1656.48,1440.87 L1650.51,1431.26 L1645.73,1423.25 L1619.28,1371.56 L1610.72,1355.08 L1608.79,1349.83 L1597.19,1326.94 L1594.27,1321.12 L1590.43,1313.83 L1589.06,1202.51 L1588.3,1106.16 L1587.35,1031.7 L1586.75,985.266 L1586.41,950.718 L1586.03,919.171 L1585.81,902.305 L1585.23,852.629 L1584.25,745.043 L1583.64,691.13 L1583.16,649.988 L1582.41,593.94 L1581.72,543.676 L1581.48,515.711 L1581.36,481.328 L1580.41,397.316 L1708.04,396.94 L1731.01,444.438"/>
</g>

<g fill="none" stroke="#44aa42" stroke-opacity="1" stroke-width="11.811" stroke-linecap="square" stroke-linejoin="bevel" transform="matrix(0.999751,0,0,0.999751,47.2323,35.4242)"
font-family="MS Shell Dlg 2" font-size="34.375" font-weight="400" font-style="normal" 
>
<path vector-effect="none" fill-rule="evenodd" d="M2335.51,1569.83 L2260.47,1610.85 L2241.82,1567.02 L2214.84,1565.49 L2204.41,1532.86 L2173.24,1514.99 L2137.28,1493.92 L2065.71,1453.64 L1956.72,1391.34 L1827.26,1317.41 L1752.9,1274.91 L1559.27,1164.77 L1420,1085.09 L1147.82,929.697 L1076.21,888.772 L1000.19,845.259 L923.7,801.564 L695.519,675.232 L504.347,562.522 L504.146,552.277"/>
</g>

<g fill="none" stroke="#000000" stroke-opacity="1" stroke-width="1" stroke-linecap="square" stroke-linejoin="bevel" transform="matrix(11.8081,0,0,11.8081,47.2323,35.4242)"
font-family="MS Shell Dlg 2" font-size="34.375" font-weight="400" font-style="normal" 
>
</g>

<g fill="none" stroke="#000000" stroke-opacity="1" stroke-width="1" stroke-linecap="square" stroke-linejoin="bevel" transform="matrix(11.8081,0,0,11.8081,47.2323,35.4242)"
font-family="MS Shell Dlg 2" font-size="34.375" font-weight="400" font-style="normal" 
>
</g>

<g fill="none" stroke="#000000" stroke-opacity="1" stroke-width="1" stroke-linecap="square" stroke-linejoin="bevel" transform="matrix(11.8081,0,0,11.8081,47.2323,35.4242)"
font-family="MS Shell Dlg 2" font-size="34.375" font-weight="400" font-style="normal" 
>
</g>

<g fill="none" stroke="#000000" stroke-opacity="1" stroke-width="1" stroke-linecap="square" stroke-linejoin="bevel" transform="matrix(1,0,0,1,0,0)"
font-family="MS Shell Dlg 2" font-size="34.375" font-weight="400" font-style="normal" 
>
</g>

<g fill="none" stroke="#000000" stroke-opacity="1" stroke-width="1" stroke-linecap="square" stroke-linejoin="bevel" transform="matrix(11.8081,0,0,11.8081,47.2323,35.4242)"
font-family="MS Shell Dlg 2" font-size="34.375" font-weight="400" font-style="normal" 
>
</g>

<g fill="none" stroke="#000000" stroke-opacity="1" stroke-width="1" stroke-linecap="square" stroke-linejoin="bevel" transform="matrix(11.8081,0,0,11.8081,47.2323,35.4242)"
font-family="MS Shell Dlg 2" font-size="34.375" font-weight="400" font-style="normal" 
>
</g>

<g fill="none" stroke="#000000" stroke-opacity="1" stroke-width="1" stroke-linecap="square" stroke-linejoin="bevel" transform="matrix(11.8081,0,0,11.8081,47.2323,35.4242)"
font-family="MS Shell Dlg 2" font-size="34.375" font-weight="400" font-style="normal" 
>
</g>

<g fill="none" stroke="#000000" stroke-opacity="1" stroke-width="1" stroke-linecap="square" stroke-linejoin="bevel" transform="matrix(11.8081,0,0,11.8081,47.2323,35.4242)"
font-family="MS Shell Dlg 2" font-size="34.375" font-weight="400" font-style="normal" 
>
</g>

<g fill="none" stroke="#000000" stroke-opacity="1" stroke-width="1" stroke-linecap="square" stroke-linejoin="bevel" transform="matrix(11.8081,0,0,11.8081,0,0)"
font-family="MS Shell Dlg 2" font-size="34.375" font-weight="400" font-style="normal" 
>
</g>

<g fill="none" stroke="#000000" stroke-opacity="1" stroke-width="1" stroke-linecap="square" stroke-linejoin="bevel" transform="matrix(11.8081,0,0,11.8081,0,0)"
font-family="MS Shell Dlg 2" font-size="34.375" font-weight="400" font-style="normal" 
>
</g>

<g fill="none" stroke="#000000" stroke-opacity="1" stroke-width="1" stroke-linecap="square" stroke-linejoin="bevel" transform="matrix(1,0,0,1,0,0)"
font-family="MS Shell Dlg 2" font-size="34.375" font-weight="400" font-style="normal" 
>
</g>
</g>
</svg>
